<svg version="1.2" xmlns="http://www.w3.org/2000/svg" viewBox="0 0 1020 1863" width="1020" height="1863">
	<title>travel logo-ai</title>
	<defs>
		<radialGradient id="g1" cx="0" cy="0" r="1" gradientUnits="userSpaceOnUse" gradientTransform="matrix(269.106,0,0,269.106,468.626,753.224)">
			<stop offset="0" stop-color="#f15a24"/>
			<stop offset="1" stop-color="#fabd14"/>
		</radialGradient>
	</defs>
	<style>
		tspan { white-space:pre } 
		.s0 { fill: url(#g1) } 
		.s1 { fill: #ffffff } 
		.s2 { fill: #000000 } 
		.t3 { font-size: 121px;fill: #ffffff;font-weight: 700;font-family: "Montserrat-Bold", "Montserrat" } 
	</style>
	<g id="Layer 1">
		<g id="&lt;Group&gt;">
			<g id="&lt;Group&gt;">
				<path id="&lt;Compound Path&gt;" fill-rule="evenodd" class="s0" d="m245.2 911.4c-7.6-23.7-11.8-48.9-11.8-75.1 0-134.1 108.8-242.9 243-242.9 104 0 192.8 65.4 227.4 157.4l-6 4c0 0-12.5 8.2-13.2 8.7q-1.7 1.1-3.4 2.2l-5.6 3.5q-2 1.3-3.9 2.5c-2.4 1.5-4.9 3.1-7.3 4.6l-2.7 1.5c-6.6 4-13.4 8.1-20.2 12-11.1 6.5-22.3 12.7-33.2 18.6-5.3 2.8-10.8 5.7-16.8 8.8-4.7 2.4-9 4.6-13.2 6.7-10.1 5.1-20.2 9.9-30.2 14.6l-0.5 0.2c-18.3 8.4-33.7 15.1-48.5 21-6.1 2.5-11.5 4.6-16.5 6.5q-4 1.6-8.1 3.1-4.1 1.6-8.3 3.1c-5 1.8-10.4 3.7-16.5 5.8-9 3.1-17.2 5.7-25 8.2-7.7 2.3-16 4.7-25.2 7.2-12 3.4-24.5 6.4-36.9 9-4.4 1-9 1.9-13.9 2.8-0.7 0.1-1.3 0.3-2 0.4-16.4 3-33 5.2-49.2 6.4-7.6 0.6-15.4 0.9-22.9 0.9q-1.2 0-2.5 0c-3.3-0.1-6.7-0.1-9.9-0.3-5.1-0.2-9.7-0.6-14.2-1.1l-0.7-0.1zm126.8-237.2l3.4 0.6q1.7 0.2 3.3 0.6c2.1 0.4 4.1 1 5.8 1.9l1.2 0.7 0.8-1.1c0.4-0.6 1-1.4 1.6-2 0.5-0.7 1.1-1.4 1.7-2 0.7-0.6 1.3-1.2 2.1-1.7 0.7-0.5 1.5-0.9 2.4-1.2-0.9-0.3-2-0.3-3 0-1 0.2-1.9 0.6-2.8 1.1-0.9 0.5-1.7 1.2-2.4 1.8q-0.7 0.6-1.2 1.3c-2-0.9-4-1.3-6-1.3q-1.8 0-3.5 0.3c-1.2 0.2-2.3 0.5-3.4 1zm-22.4 17.1l3.5 0.6q1.6 0.2 3.2 0.6c2.1 0.4 4.2 1 5.8 1.9l1.3 0.7 0.7-1.1c0.5-0.6 1.1-1.4 1.6-2 0.6-0.7 1.2-1.4 1.8-2 0.6-0.6 1.3-1.2 2-1.7 0.8-0.5 1.6-0.9 2.5-1.2-0.9-0.3-2-0.3-3 0-1 0.2-2 0.6-2.8 1.1-0.9 0.5-1.7 1.2-2.5 1.8q-0.6 0.6-1.2 1.3c-1.9-0.9-4-1.3-5.9-1.3q-1.8 0-3.6 0.3c-1.1 0.2-2.3 0.5-3.4 1zm-6.2 24.5l4.6 0.8c1.5 0.3 3 0.5 4.4 0.8 2.9 0.6 5.6 1.5 7.9 2.7l1.7 1 1-1.6c0.6-0.8 1.4-1.8 2.2-2.7 0.7-0.9 1.5-1.8 2.4-2.7 0.8-0.8 1.7-1.6 2.7-2.2 1-0.7 2.1-1.3 3.4-1.7-1.3-0.4-2.7-0.4-4.1-0.1-1.4 0.4-2.7 0.9-3.8 1.6-1.2 0.7-2.3 1.6-3.3 2.5q-0.9 0.8-1.7 1.6c-2.6-1.2-5.4-1.6-8-1.7q-2.4 0-4.8 0.4c-1.6 0.3-3.1 0.7-4.6 1.3zm-25-10.4l2.3 0.3q1.1 0.2 2.1 0.4c1.4 0.3 2.7 0.7 3.8 1.3l0.9 0.5 0.5-0.7c0.3-0.5 0.7-0.9 1-1.4q0.6-0.7 1.2-1.3c0.4-0.4 0.8-0.8 1.3-1.1q0.7-0.5 1.7-0.8c-0.7-0.2-1.4-0.2-2 0q-1 0.2-1.9 0.7-0.9 0.6-1.6 1.2-0.4 0.4-0.8 0.9c-1.3-0.6-2.6-0.9-3.9-0.9q-1.2 0-2.3 0.2c-0.8 0.1-1.6 0.3-2.3 0.7z"/>
				<path id="&lt;Path&gt;" class="s1" d="m858.1 660.1c-2-2.5-7.1-0.2-7.1-0.2-4.1-1.5-11.1 2.3-16.8 6.3-5.5 3.7-28.9 21.1-31.6 23 0.1-0.1 0-0.4-1.8-0.5q-0.2 0-0.4 0c-2.4-0.2-5.9 2.5-7.5 4q-0.7 0.6-1.1 0.9l-4.8 0.8-14.2 2.3c0 0 0.5-2.3-2.1-3.4-2.7-1.2-12.2 5.8-12.2 5.8l-44.2 6.2-7.8 7.6 62.2-3 5.1-0.3-11.7 10-6.6 1.4-0.3-0.1q-0.9 0.7-1.8 1.4h-0.1l-19-9-7.2 5 10 16-15 3.2-8.1 6.2 11.9-1q-1.4 1-2.7 2c-3.7 2.5-7.3 5.2-11 7.6l-3.4 2.4-2.9 1.9-4.7 3.2-6.8 4.5-4.4 2.8c-1.9 1.3-3.7 2.5-5.6 3.7l-5.6 3.5c-3.8 2.4-7.5 4.8-11.3 7.1-7.7 4.6-15.3 9.2-23 13.6q-16.5 9.6-33.4 18.7-8.4 4.5-16.8 8.8-6.6 3.5-13.3 6.8-15.1 7.5-30.4 14.6-0.2 0.1-0.5 0.3c-16.1 7.4-32.3 14.5-48.8 21.1q-8.2 3.3-16.5 6.5-4.1 1.6-8.2 3.2-4.2 1.5-8.3 3-8.3 3-16.7 5.9c-8.3 2.8-16.7 5.6-25.1 8.2-8.4 2.6-16.9 5-25.4 7.3q-18.5 5.1-37.3 9.1-7 1.5-14 2.8-1 0.2-2.1 0.4c-16.5 3-33.1 5.2-49.7 6.5q-13 1-25.9 0.9-5.1-0.1-10.1-0.3c-4.9-0.2-9.8-0.6-14.6-1.1q-0.4-0.1-0.8-0.1-1.3-0.2-2.6-0.3c-7.5-1.1-15-2.4-22.1-4.4-4-1.1-7.9-2.5-11.7-4-3.7-1.5-7.4-3.2-10.9-5.2-6.9-3.9-13.2-8.8-18.1-14.9-2.5-3-4.7-6.2-6.5-9.7-1.8-3.5-3.2-7.2-4.3-11.1-2.2-7.7-2.9-16.1-2.4-24.5 0.5-8.5 2.2-17 4.5-25.5 1.2-4.2 2.6-8.4 4.1-12.5 1.5-4.2 3.2-8.3 4.9-12.4 3.5-8.3 7.7-16.2 11.9-24.2-11.3 14-21.4 29.3-28.8 46.3-3.6 8.5-6.6 17.5-8.2 26.9-1.7 9.4-2.1 19.2-0.4 29.1 0.8 4.9 2.2 9.8 4.1 14.5 1.8 4.7 4.3 9.2 7.1 13.5 2.9 4.2 6.2 8.1 9.9 11.7 3.6 3.5 7.6 6.7 11.7 9.5 4.1 2.8 8.4 5.3 12.9 7.5 4.4 2.1 8.9 4.1 13.5 5.7 9.1 3.3 18.5 5.6 27.8 7.3q5.9 1.1 11.8 1.8 1.6 0.2 3.3 0.4 6.5 0.7 13.1 1.1 1.1 0.1 2.2 0.2 0.4 0 0.7 0 1.2 0.1 2.4 0.1 1.6 0.1 3.2 0.1 0.5 0 1.1 0 1.7 0.1 3.5 0.1 0.3 0 0.7 0 2.2 0.1 4.4 0.1 4.9 0 9.9-0.2 3.5-0.1 6.9-0.2 2.6-0.1 5.2-0.3 2.6-0.1 5.1-0.3 0.1 0 0.2 0 6.8-0.5 13.5-1.3 0.2 0 0.3 0 5-0.5 10-1.2 2.1-0.2 4.3-0.5 2.9-0.4 5.9-0.9 1.7-0.2 3.3-0.5 0.3 0 0.6-0.1 2.7-0.4 5.4-0.8 1-0.2 2-0.4 1.9-0.3 3.8-0.6 1.8-0.4 3.6-0.7 2.8-0.5 5.6-1.1 0.4-0.1 0.7-0.1 3.1-0.7 6.1-1.3c9-1.9 18-4 26.9-6.2 17.8-4.7 35.3-10 52.7-15.9q2.9-1 5.9-2.1 0.8-0.2 1.5-0.5 1.9-0.7 3.9-1.4 1.7-0.6 3.5-1.3 4-1.4 8.1-3 0.2-0.1 0.4-0.1 2.8-1.1 5.7-2.2 0.8-0.3 1.6-0.6 2.1-0.8 4.1-1.7 2-0.7 3.8-1.5 6.4-2.5 12.7-5.2c8.4-3.5 16.8-7.2 25.1-11 4.1-1.9 8.3-3.9 12.4-5.8q6.2-3 12.3-6.1c8.1-4 16.2-8.3 24.3-12.5q3.8-2 7.5-4.1 2-1.2 4.1-2.3 1.7-1 3.3-1.9 4.5-2.5 8.9-5.1c4-2.2 7.9-4.6 11.8-6.9l5.9-3.5 2.9-1.8 0.3-0.2 2.6-1.6 11.5-7.3 2.9-1.9 2.9-1.8 5.7-3.8q8.2-5.5 16.3-11.2 1.6-1.1 3.2-2.3 1.4-1 2.9-2 5-3.6 9.9-7.2 2.5-1.8 4.9-3.7 0.2-0.2 0.5-0.4 2.6-1.9 5.1-3.9 0.8-0.5 1.6-1.1 5.1-4 10.2-8 1.4-1.2 2.9-2.4 2.2-1.8 4.3-3.5l-0.2 0.2 49.7-37q2-1 4.1-2.1c10.7-5.6 32.1-21.7 32.1-21.7l11.1 10.5c4.7-3.2 5.1-5.4 5.1-6.3 0.4 1.4 2.3 1.8 2.3 1.8 4.9-2.2 10.3-6.8 10.6-8.4 0.2-1.7-1.7-3-1.7-3 4.5-3.8 5-4.7 3.7-6.5-1.3-1.7-7.1 2.1-7.1 2.1l-4.9 1.4 1.6-7.6c37.6-24.5 34-31.3 32.9-32.6z"/>
				<path id="&lt;Compound Path&gt;" fill-rule="evenodd" class="s1" d="m716.2 779.2c4.5 18.5 6.8 37.9 6.7 57.8-0.8 134.9-109.9 238.5-236.9 237 49.6-16.2 69.3-56.9 87.4-101.2-12.2-1.9-23.2-4.1-34.2-5.1-16.4-1.5-32.8-2-49.2-3.4-6.4-0.5-7.5 2-7.7 7.7-1.5 31.1-3.3 62.1-6.3 93.1-1.3-18.2-2.7-36.4-3.8-54.7-0.8-13.4-1.3-26.9-1.7-40.4-0.1-3.8-1.2-6.1-5.6-5.7-27 2.7-54.1 5.2-81.1 7.8-0.9 0.1-1.7 0.6-3.6 1.4 7.6 21.9 17.5 42.4 31.6 60.8 14.1 18.6 31.3 33.1 54.5 39.3-86.9 1.8-167.3-47.8-208.2-124.5q6.3 0.7 12.8 1.1l0.7 0.1c0.5 0 1 0 1.5 0q1.8 0.1 3.7 0.2 11.4 20.4 27.2 39.2c1.1 1.2 3 1.7 4.5 2.6q0 0 0 0c17.4-9.6 34.7-19.2 52.9-29.3q-3.1-8.8-5.7-17.7c4.6-0.7 9.5-1.6 14.9-2.6q0.1 0 0.3-0.1 2.2 8.8 4.8 17.5c2-0.2 3.4-0.1 4.7-0.5 27.2-7.7 54.9-11.9 83.1-12.3 5-0.1 6-2.4 5.9-6.8q-0.3-12.3-0.5-24.6 1-0.3 1.9-0.6c4.7-1.7 9.1-3.3 13.4-4.9q-0.3 14.6-0.7 29.2c-0.2 6.4 2.1 7.6 7.8 7.8 10 0.2 20.1 0.7 30 2.2 18.3 2.8 36.4 6.4 56 9.9 9.7-32.3 15.2-65.6 16.6-99.4q1.7-0.9 3.2-1.8c3.8-2.1 7.7-4.3 11.5-6.5q1.4-0.8 2.8-1.6c-1.9 20.8-3.4 41.6-6.9 62.1-2.9 17.7-8.3 35-12.5 52 17.8 8.9 36 17.9 55.2 27.5 37.7-44 57.6-95.2 58.5-154.6-3.7 0-6.4-0.1-9 0.1-23.6 1.4-47.1 3.1-70.7 4.3l8.2-4.8 3-1.9 4.5-2.9c15.2 0.8 30.3 1.8 45.5 2.7 5.8 0.3 11.7 0.6 18.5 1q-0.4-23.2-4.5-44.8 1.1-0.9 2.2-1.8 0.8-0.5 1.6-1.2c3.6-2.7 7.1-5.4 10.3-8.1zm-346.2 204.5c-2.9-6.7-5.9-8.4-12.7-6.2q-2.6 0.8-5.2 1.7-1.9 0.6-3.8 1.2-2.5 0.8-5 1.5-3.5 1.1-7 2.2-4.2 1.3-8.5 2.5-9.6 2.9-19.2 5.8 0.2 0.4 0.5 0.7 0.1 0.2 0.2 0.4c1.1 1.8 2.1 3.7 3.3 5.4q0.3 0.4 0.5 0.7 0.3 0.4 0.6 0.7 0.2 0.2 0.4 0.4 0.1 0.2 0.3 0.4c32.7 33.5 72 55.7 117.4 67 4.5 1.1 9.1 1.9 13.7 2.8-0.7-1.8-1.8-2.5-2.8-3.2-10.3-7-21.6-13.1-30.8-21.3-19.2-17.2-32-39.2-41.9-62.7zm275.5 10.1c-3.3-1.4-5.4-2.6-7.7-3.3-15.1-4.6-30.2-8.9-45.2-13.6-4.9-1.5-6.7 0.3-8.5 4.6-8 19.1-18.2 36.9-31.5 52.8-10.6 12.8-22.8 23.7-37.7 31.3-2.8 1.4-5.6 2.7-8.4 4 54.9-8.8 100.8-34.1 139-75.8z"/>
				<path id="&lt;Path&gt;" class="s2" d="m322.9 706.1c1.4 0.3 2.7 0.7 3.8 1.3l0.8 0.5 0.5-0.8c0.3-0.4 0.7-0.9 1.1-1.4q0.5-0.6 1.2-1.2c0.4-0.4 0.8-0.8 1.3-1.1q0.7-0.5 1.6-0.9c-0.6-0.1-1.3-0.1-2 0q-1 0.3-1.8 0.8-0.9 0.5-1.6 1.2-0.5 0.4-0.8 0.8c-1.3-0.6-2.7-0.8-4-0.9q-1.1 0-2.3 0.2c-0.8 0.2-1.5 0.4-2.2 0.7l2.2 0.4q1.1 0.2 2.2 0.4z"/>
				<path id="&lt;Path&gt;" class="s2" d="m352.5 717.4c2.9 0.6 5.6 1.4 7.9 2.7l1.6 0.9 1.1-1.5c0.6-0.9 1.4-1.9 2.1-2.8 0.8-0.9 1.6-1.8 2.4-2.6 0.9-0.8 1.8-1.6 2.8-2.3 1-0.7 2.1-1.2 3.3-1.7-1.3-0.3-2.7-0.3-4 0-1.4 0.3-2.7 0.8-3.9 1.6-1.2 0.6-2.3 1.5-3.3 2.4q-0.8 0.8-1.6 1.7c-2.6-1.3-5.4-1.7-8.1-1.8q-2.4 0-4.7 0.4c-1.6 0.3-3.2 0.7-4.6 1.4l4.6 0.8c1.5 0.2 2.9 0.5 4.4 0.8z"/>
				<path id="&lt;Path&gt;" class="s2" d="m356.4 692.4c2.1 0.4 4.1 1 5.8 2l1.2 0.7 0.8-1.1c0.5-0.7 1-1.4 1.6-2.1 0.5-0.7 1.1-1.3 1.8-1.9 0.6-0.6 1.2-1.2 2-1.7 0.7-0.5 1.5-0.9 2.5-1.3-1-0.2-2-0.2-3 0-1 0.2-2 0.6-2.9 1.2-0.9 0.5-1.7 1.1-2.4 1.8q-0.6 0.6-1.2 1.2c-1.9-0.9-4-1.2-6-1.3q-1.8 0-3.5 0.3c-1.2 0.2-2.3 0.5-3.4 1l3.4 0.6q1.7 0.3 3.3 0.6z"/>
				<path id="&lt;Path&gt;" class="s2" d="m378.7 675.3c2.1 0.4 4.2 1 5.8 2l1.3 0.7 0.8-1.1c0.4-0.7 1-1.4 1.5-2.1 0.6-0.7 1.2-1.3 1.8-1.9 0.6-0.6 1.3-1.2 2-1.7 0.8-0.5 1.6-0.9 2.5-1.3-0.9-0.2-2-0.2-3 0-1 0.2-2 0.6-2.8 1.2-0.9 0.5-1.7 1.1-2.5 1.8q-0.6 0.6-1.2 1.2c-1.9-0.9-3.9-1.2-5.9-1.3q-1.8 0-3.6 0.3c-1.1 0.2-2.3 0.5-3.3 1l3.4 0.6q1.6 0.3 3.2 0.6z"/>
			</g>
			<text id="will travel " style="transform: matrix(1,0,0,1,497.814,1183.086)" >
				<tspan x="-308.2" y="0" class="t3">w</tspan><tspan  y="0" class="t3">i</tspan><tspan  y="0" class="t3">l</tspan><tspan  y="0" class="t3">l</tspan><tspan  y="0" class="t3"> </tspan><tspan  y="0" class="t3">t</tspan><tspan  y="0" class="t3">r</tspan><tspan  y="0" class="t3">a</tspan><tspan  y="0" class="t3">v</tspan><tspan  y="0" class="t3">e</tspan><tspan  y="0" class="t3">l</tspan><tspan  y="0" class="t3">
</tspan>
			</text>
		</g>
	</g>
</svg>